<svg width="23" height="23" viewBox="0 0 23 23" fill="none" xmlns="http://www.w3.org/2000/svg">
<path d="M21.2031 0.953125H1.79688C1.33018 0.953125 0.953125 1.33018 0.953125 1.79688V21.2031C0.953125 21.6698 1.33018 22.0469 1.79688 22.0469H21.2031C21.6698 22.0469 22.0469 21.6698 22.0469 21.2031V1.79688C22.0469 1.33018 21.6698 0.953125 21.2031 0.953125ZM20.3594 20.3594H15.5052V13.8783H18.2474L18.6587 10.6958H15.5052V8.66289C15.5052 7.74004 15.7609 7.1125 17.0819 7.1125H18.7668V4.26484C18.4741 4.22529 17.4748 4.13828 16.3094 4.13828C13.8783 4.13828 12.2146 5.62275 12.2146 8.34648V10.6932H9.46709V13.8757H12.2172V20.3594H2.64062V2.64062H20.3594V20.3594Z" fill="#FFF4D5"/>
</svg>
