<svg width="23" height="23" viewBox="0 0 23 23" fill="none" xmlns="http://www.w3.org/2000/svg">
<path fill-rule="evenodd" clip-rule="evenodd" d="M7.15461 1.02126C8.27873 0.969508 8.63715 0.958008 11.5007 0.958008C14.3642 0.958008 14.7226 0.970466 15.8457 1.02126C16.9689 1.07205 17.7356 1.25126 18.4064 1.51097C19.1089 1.77642 19.7461 2.19138 20.2732 2.72805C20.8099 3.25417 21.2239 3.89051 21.4884 4.59392C21.7491 5.26476 21.9273 6.03142 21.9791 7.15268C22.0308 8.27872 22.0423 8.63713 22.0423 11.4997C22.0423 14.3632 22.0299 14.7216 21.9791 15.8457C21.9283 16.967 21.7491 17.7336 21.4884 18.4045C21.2239 19.108 20.8092 19.7454 20.2732 20.2723C19.7461 20.8089 19.1089 21.2229 18.4064 21.4874C17.7356 21.7481 16.9689 21.9263 15.8476 21.9781C14.7226 22.0298 14.3642 22.0413 11.5007 22.0413C8.63715 22.0413 8.27873 22.0289 7.15461 21.9781C6.03336 21.9273 5.26669 21.7481 4.59586 21.4874C3.89237 21.2229 3.25498 20.8082 2.72807 20.2723C2.19177 19.7458 1.77674 19.1087 1.51194 18.4054C1.25223 17.7346 1.07398 16.9679 1.02223 15.8467C0.970484 14.7206 0.958984 14.3622 0.958984 11.4997C0.958984 8.63617 0.971443 8.27776 1.02223 7.15459C1.07303 6.03142 1.25223 5.26476 1.51194 4.59392C1.77714 3.89059 2.19247 3.25352 2.72903 2.72709C3.25519 2.1909 3.89194 1.77589 4.5949 1.51097C5.26573 1.25126 6.0324 1.07301 7.15365 1.02126H7.15461ZM15.7604 2.91876C14.6488 2.86797 14.3153 2.85742 11.5007 2.85742C8.68603 2.85742 8.35253 2.86797 7.24086 2.91876C6.21257 2.96572 5.65482 3.13726 5.28298 3.28197C4.79136 3.47363 4.43965 3.70076 4.07069 4.06972C3.72094 4.40997 3.45178 4.8242 3.28294 5.28201C3.13823 5.65384 2.96669 6.21159 2.91973 7.23988C2.86894 8.35155 2.8584 8.68505 2.8584 11.4997C2.8584 14.3143 2.86894 14.6478 2.91973 15.7595C2.96669 16.7878 3.13823 17.3455 3.28294 17.7173C3.45161 18.1745 3.7209 18.5894 4.07069 18.9296C4.4109 19.2794 4.82586 19.5487 5.28298 19.7174C5.65482 19.8621 6.21257 20.0336 7.24086 20.0806C8.35253 20.1314 8.68507 20.1419 11.5007 20.1419C14.3162 20.1419 14.6488 20.1314 15.7604 20.0806C16.7887 20.0336 17.3465 19.8621 17.7183 19.7174C18.2099 19.5257 18.5616 19.2986 18.9306 18.9296C19.2804 18.5894 19.5497 18.1745 19.7184 17.7173C19.8631 17.3455 20.0346 16.7878 20.0816 15.7595C20.1324 14.6478 20.1429 14.3143 20.1429 11.4997C20.1429 8.68505 20.1324 8.35155 20.0816 7.23988C20.0346 6.21159 19.8631 5.65384 19.7184 5.28201C19.5267 4.79038 19.2996 4.43867 18.9306 4.06972C18.5903 3.71999 18.1761 3.45083 17.7183 3.28197C17.3465 3.13726 16.7887 2.96572 15.7604 2.91876ZM10.1542 14.7494C10.9062 15.0624 11.7435 15.1047 12.5231 14.8689C13.3028 14.6332 13.9764 14.1341 14.4289 13.4568C14.8815 12.7796 15.0849 11.9663 15.0044 11.1557C14.9239 10.3452 14.5644 9.58777 13.9875 9.0128C13.6198 8.64526 13.1751 8.36383 12.6855 8.18877C12.1959 8.01372 11.6736 7.9494 11.1561 8.00043C10.6387 8.05147 10.139 8.21659 9.69305 8.48392C9.24709 8.75126 8.86595 9.11414 8.57707 9.54645C8.28818 9.97876 8.09875 10.4697 8.02239 10.9841C7.94604 11.4984 7.98467 12.0232 8.1355 12.5208C8.28633 13.0184 8.54561 13.4763 8.89467 13.8617C9.24374 14.2471 9.6739 14.5502 10.1542 14.7494ZM7.66923 7.66826C8.17238 7.16511 8.76971 6.76599 9.4271 6.49369C10.0845 6.22139 10.7891 6.08123 11.5007 6.08123C12.2122 6.08123 12.9168 6.22139 13.5742 6.49369C14.2316 6.76599 14.8289 7.16511 15.3321 7.66826C15.8352 8.17141 16.2343 8.76873 16.5066 9.42613C16.7789 10.0835 16.9191 10.7881 16.9191 11.4997C16.9191 12.2112 16.7789 12.9158 16.5066 13.5732C16.2343 14.2306 15.8352 14.8279 15.3321 15.3311C14.3159 16.3472 12.9377 16.9181 11.5007 16.9181C10.0636 16.9181 8.68539 16.3472 7.66923 15.3311C6.65308 14.3149 6.08221 12.9367 6.08221 11.4997C6.08221 10.0626 6.65308 8.68441 7.66923 7.66826ZM18.1208 6.88818C18.2455 6.77056 18.3453 6.62912 18.4144 6.47223C18.4834 6.31535 18.5203 6.1462 18.5228 5.97482C18.5253 5.80343 18.4933 5.63328 18.4289 5.47445C18.3645 5.31562 18.2688 5.17133 18.1476 5.05013C18.0264 4.92893 17.8821 4.83328 17.7233 4.76884C17.5645 4.7044 17.3943 4.67248 17.2229 4.67498C17.0515 4.67748 16.8824 4.71434 16.7255 4.78338C16.5686 4.85242 16.4272 4.95224 16.3096 5.07692C16.0808 5.31941 15.9556 5.6415 15.9604 5.97482C15.9653 6.30813 16.0999 6.62643 16.3356 6.86215C16.5713 7.09786 16.8896 7.23244 17.2229 7.23729C17.5562 7.24215 17.8783 7.11692 18.1208 6.88818Z" fill="#FFF4D5"/>
</svg>
