<svg width="22" height="20" viewBox="0 0 22 20" fill="none" xmlns="http://www.w3.org/2000/svg">
<path d="M20.1816 0.24706C19.9207 0.266036 19.6647 0.327228 19.4235 0.428247H19.4203C19.1887 0.520059 18.0878 0.983184 16.414 1.68518L10.4161 4.21125C6.11232 6.02312 1.88164 7.80737 1.88164 7.80737L1.93201 7.78787C1.93201 7.78787 1.64032 7.88375 1.33564 8.09256C1.1474 8.21234 0.985428 8.36906 0.859512 8.55325C0.710012 8.77262 0.589762 9.10818 0.63445 9.45512C0.707575 10.0417 1.08782 10.3936 1.36082 10.5877C1.63707 10.7844 1.90032 10.8762 1.90032 10.8762H1.90682L5.87426 12.2127C6.0522 12.7839 7.08326 16.1737 7.33107 16.9545C7.47732 17.4209 7.61951 17.7126 7.79745 17.9352C7.88357 18.0489 7.98432 18.144 8.10539 18.2204C8.16832 18.257 8.23543 18.2859 8.30526 18.3065L8.26464 18.2967C8.27682 18.3 8.28657 18.3097 8.29551 18.313C8.32801 18.3219 8.34995 18.3252 8.39139 18.3317C9.01945 18.5218 9.52401 18.1318 9.52401 18.1318L9.55245 18.1091L11.8949 15.9762L15.8209 18.9882L15.9103 19.0264C16.7285 19.3855 17.5572 19.1856 17.9951 18.833C18.4363 18.4779 18.6078 18.0237 18.6078 18.0237L18.6362 17.9506L21.6701 2.40831C21.7562 2.02481 21.7781 1.66568 21.6831 1.31712C21.585 0.964355 21.3587 0.660953 21.0485 0.466434C20.788 0.30809 20.486 0.231662 20.1816 0.24706ZM20.0995 1.91268C20.0963 1.96387 20.106 1.95818 20.0833 2.0565V2.06543L17.0778 17.4461C17.0648 17.468 17.0429 17.5159 16.9828 17.5639C16.9194 17.6142 16.869 17.6459 16.6049 17.5411L11.8031 13.8597L8.90245 16.5036L9.51182 12.6117L17.3573 5.29918C17.6807 4.99856 17.5726 4.93518 17.5726 4.93518C17.5954 4.56631 17.0843 4.82712 17.0843 4.82712L7.19132 10.9558L7.18808 10.9396L2.44632 9.343V9.33975L2.43414 9.33731C2.44245 9.33455 2.45059 9.33129 2.45851 9.32756L2.48451 9.31456L2.5097 9.30562C2.5097 9.30562 6.74364 7.52137 11.0475 5.7095C13.2022 4.80193 15.3732 3.88787 17.0429 3.18262C18.7126 2.48143 19.9468 1.96712 20.0166 1.9395C20.0833 1.9135 20.0516 1.9135 20.0995 1.9135V1.91268Z" fill="#FFF4D5"/>
</svg>
