<svg width="21" height="21" viewBox="0 0 21 21" fill="none" xmlns="http://www.w3.org/2000/svg">
<path fill-rule="evenodd" clip-rule="evenodd" d="M15.2381 12.5843C14.9774 12.4539 13.699 11.8257 13.461 11.7382C13.223 11.6515 13.0498 11.6087 12.8756 11.8694C12.7024 12.1284 12.2045 12.7147 12.0531 12.8879C11.9009 13.062 11.7495 13.083 11.4896 12.9535C11.2297 12.8223 10.3915 12.5484 9.39838 11.6629C8.62575 10.9734 8.10338 10.122 7.952 9.86129C7.80063 9.60141 7.93538 9.46053 8.06575 9.33103C8.183 9.21466 8.32562 9.02741 8.456 8.87603C8.58637 8.72378 8.62925 8.61528 8.71588 8.44116C8.80338 8.26791 8.75962 8.11653 8.694 7.98616C8.62925 7.85578 8.1095 6.57566 7.8925 6.05504C7.68163 5.54841 7.46725 5.61754 7.308 5.60879C7.15575 5.60179 6.9825 5.60004 6.80925 5.60004C6.636 5.60004 6.35425 5.66478 6.11625 5.92553C5.87737 6.18541 5.20625 6.81454 5.20625 8.09466C5.20625 9.37391 6.13725 10.6103 6.26762 10.7844C6.398 10.9577 8.10075 13.5844 10.7091 14.7105C11.3304 14.9783 11.8142 15.1384 12.1914 15.2574C12.8144 15.456 13.3814 15.428 13.8294 15.3607C14.3281 15.2863 15.3676 14.7315 15.5846 14.1243C15.8008 13.517 15.8007 12.9964 15.736 12.8879C15.6712 12.7794 15.498 12.7147 15.2372 12.5843H15.2381ZM10.4939 19.0619H10.4904C8.94113 19.0622 7.42033 18.6457 6.08737 17.8562L5.77238 17.6689L2.49813 18.5282L3.37225 15.3362L3.16663 15.0089C2.3005 13.6302 1.84213 12.0346 1.8445 10.4064C1.84625 5.63766 5.726 1.75791 10.4974 1.75791C12.8074 1.75791 14.9791 2.65916 16.6119 4.29366C17.4172 5.09567 18.0555 6.04941 18.4899 7.0997C18.9242 8.14999 19.146 9.27598 19.1424 10.4125C19.1406 15.1813 15.2609 19.0619 10.4939 19.0619ZM17.8544 3.05204C16.8903 2.08159 15.7432 1.31213 14.4796 0.788236C13.216 0.264342 11.8609 -0.00356672 10.493 3.58554e-05C4.75825 3.58554e-05 0.08925 4.66816 0.0875 10.4055C0.086625 12.2395 0.56525 14.0298 1.47613 15.6074L0 21L5.516 19.5528C7.04189 20.3841 8.75183 20.8197 10.4895 20.8198H10.4939C16.2286 20.8198 20.8976 16.1517 20.8994 10.4134C20.9036 9.04603 20.6367 7.69137 20.114 6.42781C19.5913 5.16426 18.8233 4.01687 17.8544 3.05204Z" fill="#FFF4D5"/>
</svg>
